<?xml version="1.0" standalone="no"?>
<!DOCTYPE svg PUBLIC "-//W3C//DTD SVG 20010904//EN"
 "http://www.w3.org/TR/2001/REC-SVG-20010904/DTD/svg10.dtd">
<svg version="1.0" xmlns="http://www.w3.org/2000/svg"
 width="1024.000000pt" height="1024.000000pt" viewBox="0 0 1024.000000 1024.000000"
 preserveAspectRatio="xMidYMid meet">
<metadata>
Created by potrace 1.11, written by Peter Selinger 2001-2013
</metadata>
<g transform="translate(0.000000,1024.000000) scale(0.100000,-0.100000)"
fill="#000000" stroke="none">
<path d="M0 5120 l0 -5120 5120 0 5120 0 0 5120 0 5120 -5120 0 -5120 0 0
-5120z m1338 2618 c8 -8 12 -67 12 -200 l0 -188 410 0 410 0 2 198 3 197 50 0
50 0 0 -233 c0 -220 -1 -234 -19 -248 -16 -11 -65 -14 -233 -14 l-213 0 0
-895 0 -895 895 0 895 0 2 548 3 547 1520 0 1520 0 3 -547 2 -548 890 0 890 0
0 895 0 895 -213 0 c-168 0 -217 3 -233 14 -18 14 -19 28 -19 248 l0 233 50 0
50 0 3 -197 2 -198 410 0 410 0 0 189 c0 211 1 215 67 209 l38 -3 0 -233 c0
-220 -1 -234 -19 -248 -16 -11 -65 -14 -233 -14 l-213 0 0 -927 c0 -567 -4
-934 -10 -943 -8 -13 -125 -15 -940 -18 l-930 -2 0 -114 c0 -83 -4 -117 -14
-125 -10 -8 -415 -10 -1522 -9 l-1509 3 -3 122 -3 123 -935 2 c-818 3 -936 5
-944 18 -6 9 -10 376 -10 943 l0 927 -215 0 c-202 0 -216 1 -235 20 -19 19
-20 33 -20 243 0 123 3 227 7 230 11 12 78 8 91 -5z m7030 -4075 l2 -723 -100
0 -100 0 0 718 c0 395 3 722 7 726 4 4 48 5 98 4 l90 -3 3 -722z m-6857 705
c50 -17 83 -45 110 -91 24 -42 24 -44 24 -337 0 -327 -2 -341 -62 -371 l-32
-16 24 -11 c14 -7 34 -26 45 -44 19 -31 20 -51 20 -300 l0 -268 -95 0 -95 0 0
265 0 265 -335 0 -335 0 -2 -257 -3 -258 -102 -3 -103 -3 0 721 0 720 454 0
c320 0 463 -3 487 -12z m1777 -155 l2 -162 388 -3 c445 -3 440 -3 489 -85 l28
-48 0 -420 c0 -400 -1 -422 -20 -459 -24 -48 -58 -74 -111 -86 -58 -14 -785
-13 -839 1 -54 14 -109 69 -124 126 -12 43 -16 1285 -4 1297 4 4 48 5 98 4
l90 -3 3 -162z m3292 -186 c43 -18 73 -51 90 -97 16 -43 27 -1075 12 -1215
-10 -104 -31 -156 -76 -188 -31 -22 -33 -22 -436 -22 -381 0 -407 1 -433 19
-39 26 -74 91 -86 160 -17 92 -23 86 88 86 104 0 111 -3 111 -51 0 -18 11 -19
320 -19 l320 0 0 115 0 115 -92 1 c-51 1 -211 4 -355 8 l-261 6 -44 30 c-25
18 -52 49 -65 75 -23 44 -23 50 -23 430 0 212 5 403 10 424 17 76 70 123 151
136 30 5 207 7 394 6 272 -3 348 -7 375 -19z m1304 -7 c36 -18 56 -36 70 -65
20 -38 21 -59 24 -442 3 -429 0 -460 -44 -513 -49 -57 -84 -61 -531 -58 -381
3 -400 4 -438 24 -28 15 -47 35 -65 69 -24 47 -25 54 -25 269 0 238 3 253 57
303 51 48 71 50 466 58 l372 7 0 89 0 89 -345 0 c-333 0 -345 -1 -345 -19 0
-48 -7 -51 -111 -51 l-99 0 0 48 c0 125 55 195 170 215 14 3 198 4 410 3 l385
-1 49 -25z m1651 8 c76 -19 125 -98 129 -208 l1 -45 -80 -3 c-109 -4 -125 1
-125 38 l0 30 -355 0 -355 0 0 -90 0 -90 248 -1 c136 0 312 -4 392 -7 174 -9
211 -23 248 -94 22 -43 23 -55 22 -236 -1 -239 -9 -286 -54 -328 -52 -50 -95
-54 -511 -54 -353 0 -377 1 -429 21 -69 25 -92 59 -107 161 -17 108 -18 108
96 108 l95 0 0 -45 0 -45 355 0 355 0 0 158 0 159 -382 6 c-249 3 -393 9 -413
17 -45 17 -84 59 -97 105 -13 48 -12 282 2 334 17 64 73 104 170 121 61 11
745 0 795 -12z m-4517 -15 c7 -10 11 -29 8 -43 -3 -14 -9 -47 -13 -75 -6 -46
-5 -49 10 -36 9 7 24 38 34 68 27 85 51 89 156 25 74 -45 75 -64 5 -138 -38
-41 -49 -57 -40 -66 8 -8 24 0 61 35 55 51 96 61 123 30 33 -38 70 -123 64
-147 -6 -25 -21 -32 -114 -56 -26 -7 -42 -16 -39 -23 4 -13 28 -13 114 -1 75
9 83 0 83 -97 0 -100 -12 -114 -84 -104 -84 11 -109 11 -113 -1 -2 -6 23 -19
57 -28 72 -20 104 -47 95 -79 -4 -12 -23 -47 -43 -77 -47 -69 -68 -74 -129
-26 -72 56 -86 45 -28 -24 19 -23 35 -51 35 -61 0 -41 -106 -113 -158 -107
-23 3 -30 12 -49 68 -19 59 -44 93 -57 79 -3 -3 1 -29 9 -59 30 -112 17 -130
-91 -130 -61 0 -78 4 -94 20 -24 24 -24 19 -5 99 9 35 13 66 11 69 -15 14 -35
-13 -50 -67 -26 -92 -48 -97 -153 -32 -74 46 -75 67 -5 145 43 48 27 60 -24
19 -64 -50 -73 -55 -91 -49 -24 8 -93 127 -93 160 0 29 15 39 88 56 40 9 52
16 52 31 0 23 -3 23 -66 4 -66 -20 -91 -19 -104 4 -15 29 -13 164 4 186 13 18
18 18 80 6 37 -7 69 -11 72 -8 12 12 -9 27 -62 44 -31 9 -59 24 -64 33 -16 30
75 180 109 180 7 0 34 -20 60 -45 26 -25 53 -45 60 -45 22 0 10 26 -28 64 -54
53 -57 73 -17 110 18 17 54 43 79 56 61 32 76 23 103 -61 13 -40 27 -65 37
-67 21 -4 21 15 4 83 -17 65 -12 83 26 95 49 15 159 4 175 -17z m-2538 2 c11
-13 10 -30 -4 -92 -9 -42 -14 -78 -11 -81 11 -12 35 24 55 84 17 49 27 65 45
70 26 6 86 -21 134 -61 44 -38 41 -67 -14 -121 -74 -71 -51 -93 27 -25 73 65
93 60 152 -35 45 -73 46 -77 30 -95 -14 -16 -53 -31 -141 -55 -7 -2 -13 -11
-13 -20 0 -13 7 -15 33 -10 17 3 56 9 84 12 l53 7 16 -39 c13 -30 14 -51 8
-98 -12 -77 -22 -83 -113 -66 -110 21 -109 -10 1 -44 78 -23 83 -44 32 -134
-50 -86 -73 -91 -143 -33 -69 58 -102 54 -40 -5 44 -42 62 -80 49 -103 -16
-31 -126 -93 -157 -89 -23 3 -29 12 -48 68 -14 41 -28 66 -38 68 -21 4 -21 -9
-2 -72 19 -62 19 -62 -5 -86 -16 -16 -33 -20 -84 -20 -75 0 -113 12 -118 37
-2 10 2 45 9 77 8 33 12 64 10 69 -6 20 -36 -25 -51 -77 -21 -70 -39 -77 -113
-40 -60 31 -93 65 -93 97 0 11 18 37 40 58 35 34 52 69 34 69 -4 0 -29 -20
-55 -45 -72 -67 -88 -62 -149 48 -46 82 -39 100 50 123 65 16 85 33 60 49 -5
3 -35 -2 -65 -11 -100 -29 -123 -4 -113 122 7 80 20 90 103 74 36 -7 68 -10
71 -7 12 12 -8 27 -49 37 -64 16 -87 28 -87 45 0 27 69 154 90 165 23 12 28
10 91 -42 43 -36 69 -47 69 -30 0 5 -12 19 -26 33 -40 38 -66 86 -59 109 7 23
96 86 135 95 34 8 54 -15 75 -87 28 -100 56 -81 37 25 -17 91 -11 97 97 97 67
0 92 -4 101 -15z m6788 -1680 c55 -17 60 -26 40 -70 -8 -18 -16 -24 -27 -19
-9 4 -37 9 -62 12 -40 3 -49 0 -63 -19 -30 -43 -22 -48 72 -51 l87 -3 0 -180
0 -180 -42 -3 -43 -3 0 140 0 141 -45 0 -44 0 -3 -137 -3 -138 -42 -3 -43 -3
0 140 0 141 -30 0 c-24 0 -31 5 -36 27 -9 34 6 57 40 61 18 2 26 9 26 23 0 60
47 114 113 129 47 11 49 11 105 -5z m-2930 -7 c13 -17 212 -483 212 -497 0 -6
-21 -11 -49 -11 l-49 0 -21 50 -22 50 -123 0 -124 0 -21 -50 -22 -50 -49 0
c-28 0 -50 4 -50 9 0 10 179 431 204 480 15 27 21 31 60 31 24 0 48 -6 54 -12z
m660 -4 c40 -28 22 -94 -26 -94 -37 0 -52 17 -52 57 0 26 5 36 23 43 30 12 30
12 55 -6z m922 5 c31 -7 65 -23 86 -41 55 -48 71 -150 34 -222 -35 -70 -89
-94 -207 -95 l-82 -1 -3 -72 -3 -73 -45 0 -45 0 -3 245 c-1 134 0 250 3 257 6
17 192 18 265 2z m1004 1 c21 -8 26 -16 26 -43 0 -40 -15 -57 -50 -57 -14 0
-31 5 -38 12 -20 20 -14 65 10 82 27 19 21 18 52 6z m-2137 -145 c70 -21 80
-36 49 -71 -22 -26 -26 -27 -48 -16 -13 8 -44 12 -69 10 -35 -2 -44 -7 -44
-22 0 -24 15 -31 90 -45 32 -6 67 -19 77 -29 47 -46 37 -142 -18 -174 -65 -38
-171 -32 -228 13 -31 24 -32 36 -7 68 l18 23 41 -21 c42 -22 97 -27 120 -12
23 14 9 45 -23 53 -110 26 -127 33 -145 56 -12 14 -20 40 -20 61 0 60 36 97
110 112 19 4 38 7 41 8 3 0 28 -6 56 -14z m1982 -8 c43 -21 49 -43 20 -73 -22
-22 -30 -24 -47 -15 -27 14 -83 14 -103 -2 -74 -57 -39 -177 51 -177 22 0 49
5 60 12 16 10 23 9 45 -12 33 -31 32 -46 -7 -70 -92 -56 -225 -18 -264 77 -16
38 -18 113 -4 164 26 92 154 142 249 96z m880 -1 c43 -20 49 -42 20 -72 -22
-22 -30 -24 -47 -15 -11 6 -36 11 -55 11 -84 0 -117 -124 -48 -177 21 -16 86
-16 111 -1 16 10 23 9 45 -12 33 -31 32 -46 -7 -70 -69 -42 -160 -34 -221 20
-76 66 -74 226 2 294 45 41 140 51 200 22z m-2635 -2 c9 -24 7 -327 -3 -342
-5 -8 -23 -12 -47 -10 l-39 3 -3 170 c-1 93 0 175 2 182 8 19 82 17 90 -3z
m314 -8 c19 -16 20 -16 25 4 5 18 12 21 44 18 l38 -3 3 -182 2 -183 -41 0
c-32 0 -42 4 -46 20 -4 17 -7 17 -20 5 -21 -21 -88 -37 -128 -29 -86 16 -138
86 -138 183 0 128 66 195 185 188 36 -2 64 -10 76 -21z m1001 9 c26 -13 30
-13 41 0 15 18 61 20 78 3 13 -13 18 -311 6 -342 -9 -23 -84 -22 -84 0 0 12
-5 14 -17 9 -85 -36 -99 -39 -147 -25 -83 23 -126 86 -126 188 0 46 21 105 48
136 40 44 145 61 201 31z m616 -170 l0 -180 -39 -3 c-24 -2 -42 2 -47 10 -10
15 -12 318 -3 343 5 12 17 15 48 13 l41 -3 0 -180z"/>
<path d="M3960 6155 l0 -145 150 0 150 0 0 145 0 145 -150 0 -150 0 0 -145z"/>
<path d="M5990 6155 l0 -145 150 0 150 0 0 145 0 145 -150 0 -150 0 0 -145z"/>
<path d="M780 3920 l0 -260 335 0 335 0 0 260 0 260 -335 0 -335 0 0 -260z"/>
<path d="M3300 3495 l0 -355 350 0 350 0 0 355 0 355 -350 0 -350 0 0 -355z"/>
<path d="M5850 3495 l0 -355 320 0 320 0 0 355 0 355 -320 0 -320 0 0 -355z"/>
<path d="M7080 3300 l0 -160 345 0 345 0 0 160 0 160 -345 0 -345 0 0 -160z"/>
<path d="M4830 3669 c-155 -65 -175 -262 -36 -356 43 -29 56 -33 116 -33 60 0
73 4 116 33 123 83 127 247 6 331 -36 25 -54 31 -110 33 -37 2 -78 -2 -92 -8z"/>
<path d="M2270 3657 c-124 -66 -144 -216 -41 -318 69 -70 140 -85 221 -48 91
41 130 98 130 186 0 69 -26 121 -83 167 -34 27 -48 31 -110 34 -61 3 -79 0
-117 -21z"/>
<path d="M6247 2122 c-20 -48 -37 -91 -37 -95 0 -4 34 -7 75 -7 41 0 75 4 75
9 0 9 -70 181 -74 181 -1 0 -18 -39 -39 -88z"/>
<path d="M7750 2155 l0 -85 83 0 c74 0 86 3 105 23 23 25 29 75 12 107 -14 26
-63 40 -136 40 l-64 0 0 -85z"/>
<path d="M7215 2098 c-59 -32 -75 -114 -31 -161 50 -54 113 -44 150 24 24 44
16 80 -24 120 -30 30 -61 36 -95 17z"/>
<path d="M8244 2113 c-12 -2 -34 -18 -50 -34 -41 -43 -41 -105 0 -148 39 -41
77 -48 119 -22 75 46 76 142 1 192 -29 19 -32 20 -70 12z"/>
</g>
</svg>
