<?xml version="1.0" standalone="no"?>
<!DOCTYPE svg PUBLIC "-//W3C//DTD SVG 20010904//EN"
 "http://www.w3.org/TR/2001/REC-SVG-20010904/DTD/svg10.dtd">
<svg version="1.0" xmlns="http://www.w3.org/2000/svg"
 width="960.000000pt" height="960.000000pt" viewBox="0 0 960.000000 960.000000"
 preserveAspectRatio="xMidYMid meet">
<metadata>
Created by potrace 1.11, written by Peter Selinger 2001-2013
</metadata>
<g transform="translate(0.000000,960.000000) scale(0.100000,-0.100000)"
fill="#000000" stroke="none">
<path d="M716 6785 c-47 -16 -100 -66 -129 -120 -22 -40 -22 -47 -25 -637 l-3
-598 86 0 85 0 0 150 0 150 225 0 224 0 3 -147 3 -148 83 -3 82 -3 0 151 0
150 48 0 c56 0 135 35 174 76 15 16 36 49 47 74 19 42 21 65 21 380 0 207 -4
350 -11 373 -15 54 -102 142 -154 156 -63 17 -709 14 -759 -4z m717 -166 c12
-7 25 -17 29 -23 4 -6 8 -155 8 -330 0 -283 -2 -321 -17 -338 -15 -17 -39 -18
-354 -18 -338 0 -338 0 -353 22 -14 19 -16 68 -16 336 l0 313 25 24 24 25 316
0 c219 0 323 -4 338 -11z"/>
<path d="M2894 6787 c-2 -7 -3 -274 -2 -593 l3 -579 23 -47 c28 -57 88 -110
141 -126 56 -17 703 -16 752 2 58 20 107 64 134 121 l26 52 -3 359 c-3 395 -2
386 -69 453 -67 67 -56 66 -466 69 l-373 3 0 149 0 150 -80 0 c-58 0 -82 -4
-86 -13z m890 -483 c14 -13 16 -58 16 -338 0 -262 -3 -326 -14 -342 -14 -18
-29 -19 -351 -19 l-337 0 -19 24 c-19 23 -20 39 -17 343 3 303 4 320 22 334
16 11 81 14 352 14 289 0 335 -2 348 -16z"/>
<path d="M7620 6795 c0 -3 0 -310 0 -682 l0 -678 85 -3 85 -3 0 686 0 685 -85
0 c-47 0 -85 -2 -85 -5z"/>
<path d="M8049 6786 c-55 -20 -103 -61 -132 -115 -27 -48 -27 -52 -27 -240 0
-216 4 -233 77 -303 70 -67 73 -68 453 -68 327 0 341 -1 360 -20 19 -19 20
-33 20 -209 l0 -190 -26 -20 c-26 -20 -38 -21 -340 -21 -214 0 -321 4 -338 11
-30 14 -49 63 -44 116 l3 38 -83 3 -84 3 4 -93 c3 -86 5 -97 36 -140 18 -26
54 -60 80 -75 l47 -28 353 -3 c397 -3 418 -1 484 63 68 66 73 86 76 315 2 143
-1 219 -9 250 -17 59 -97 141 -155 158 -29 8 -142 12 -372 12 -409 0 -376 -15
-381 165 -4 147 2 188 31 215 21 19 36 20 348 20 326 0 327 0 347 -22 12 -13
23 -36 25 -53 l3 -30 80 0 80 0 3 37 c7 83 -81 204 -164 227 -59 16 -709 14
-755 -3z"/>
<path d="M1855 6476 c-60 -28 -97 -66 -124 -126 -19 -42 -21 -65 -21 -379 0
-235 4 -346 12 -375 17 -56 100 -141 153 -155 25 -7 165 -11 376 -11 373 0
395 3 457 63 19 18 43 50 55 72 21 39 22 50 22 400 0 353 0 361 -22 401 -28
53 -91 107 -142 122 -26 8 -149 12 -377 12 -336 0 -340 0 -389 -24z m749 -178
c14 -19 16 -68 16 -334 0 -292 -1 -313 -19 -335 l-19 -24 -324 -3 c-317 -3
-325 -2 -351 18 l-27 21 0 321 c0 285 2 323 17 340 15 17 39 18 354 18 338 0
338 0 353 -22z"/>
<path d="M4240 6487 c-19 -6 -58 -34 -87 -62 -81 -79 -85 -99 -81 -487 3 -317
3 -324 27 -368 30 -59 57 -87 106 -113 39 -21 50 -22 410 -22 362 0 371 0 411
22 47 25 89 71 113 123 14 30 16 86 16 385 l0 350 -30 54 c-32 59 -75 96 -132
117 -49 17 -699 18 -753 1z m724 -183 c14 -13 16 -59 16 -343 0 -293 -2 -330
-17 -342 -13 -11 -81 -14 -348 -14 -267 0 -335 3 -348 14 -15 12 -17 49 -17
347 0 307 1 334 18 343 10 7 142 11 349 11 288 0 334 -2 347 -16z"/>
<path d="M5402 6474 c-57 -28 -96 -69 -123 -129 -17 -36 -19 -73 -19 -384 0
-328 1 -347 21 -387 23 -48 69 -97 114 -122 26 -15 74 -17 403 -17 l372 0 0
-87 c0 -137 27 -128 -373 -128 -311 0 -335 1 -350 18 -10 10 -17 33 -17 50 l0
32 -86 0 -87 0 6 -54 c10 -96 85 -183 181 -211 46 -13 107 -16 378 -13 l323 3
58 29 c66 32 107 81 126 148 9 31 11 186 9 573 -3 525 -3 530 -25 571 -28 53
-91 107 -142 122 -26 8 -149 12 -378 12 l-339 0 -52 -26z m752 -176 c14 -19
16 -68 16 -334 0 -292 -1 -313 -19 -335 l-19 -24 -324 -3 c-317 -3 -325 -2
-351 18 l-27 21 0 318 c0 270 2 320 16 339 15 22 15 22 354 22 339 0 339 0
354 -22z"/>
<path d="M6599 6486 c-89 -31 -151 -113 -165 -214 l-7 -52 87 0 86 0 0 34 c0
26 7 40 27 56 26 20 34 21 356 18 383 -3 357 5 357 -112 l0 -71 -368 0 -367 0
-45 -25 c-53 -30 -105 -96 -121 -152 -6 -25 -9 -104 -7 -202 4 -184 14 -215
88 -279 66 -56 87 -58 476 -55 l351 3 48 30 c26 17 62 50 79 73 l31 44 3 361
c3 314 1 367 -13 404 -20 52 -99 125 -153 141 -58 18 -694 16 -743 -2z m725
-532 c13 -13 16 -42 16 -164 0 -159 -4 -173 -53 -185 -12 -3 -163 -5 -335 -3
l-314 3 -19 24 c-17 20 -19 40 -19 160 0 107 3 141 16 159 15 22 15 22 354 22
294 0 341 -2 354 -16z"/>
<path d="M635 5148 c-3 -7 -4 -137 -3 -288 l3 -275 255 -5 255 -5 3 -1047 2
-1048 998 0 c763 0 1001 -3 1010 -12 8 -8 12 -51 12 -128 0 -77 4 -120 12
-128 18 -18 3203 -17 3241 1 26 12 26 13 29 137 l3 125 1002 3 1003 2 2 1048
3 1047 258 3 257 2 0 291 0 290 -32 -3 -33 -3 -3 -239 c-1 -156 -6 -244 -13
-253 -16 -18 -919 -19 -937 -1 -9 9 -12 79 -12 255 l0 243 -35 0 -35 0 0 -290
0 -290 255 0 255 0 0 -1010 0 -1010 -967 2 -968 3 -5 615 -5 615 -1635 0
-1635 0 -3 -617 -2 -618 -975 0 -975 0 2 1008 3 1007 244 3 c160 1 249 6 258
13 10 9 13 70 13 290 l0 279 -45 0 -45 0 -2 -252 -3 -253 -467 -3 -468 -2 -2
252 -3 253 -33 3 c-20 2 -34 -2 -37 -10z m5485 -1796 c0 -192 9 -182 -173
-182 -186 0 -177 -8 -177 170 0 102 3 140 13 148 12 11 295 22 325 13 9 -2 12
-41 12 -149z m-2290 1 c0 -192 8 -183 -162 -183 -71 0 -138 5 -149 10 -18 10
-19 23 -19 165 l0 155 165 0 165 0 0 -147z"/>
<path d="M3930 4398 c0 -404 -2 -396 87 -439 48 -24 50 -24 393 -24 l345 0 3
408 2 407 -80 0 -80 0 0 -350 0 -350 -252 2 -253 3 -3 348 -2 347 -80 0 -80 0
0 -352z"/>
<path d="M4909 4727 c-24 -13 -54 -38 -66 -57 -23 -32 -23 -39 -23 -328 0
-282 1 -296 21 -329 34 -55 87 -76 209 -81 61 -3 108 -9 112 -16 4 -6 8 -26 8
-43 l0 -33 75 0 75 0 0 45 0 45 70 0 c93 0 164 17 201 47 58 49 59 56 59 366
0 299 -3 319 -48 360 -47 43 -79 47 -370 47 -273 0 -280 -1 -323 -23z m579
-376 c2 -198 -1 -277 -9 -288 -9 -10 -31 -13 -83 -11 l-71 3 -3 108 -3 107
-79 0 -79 0 -3 -107 -3 -108 -73 -3 c-46 -2 -79 2 -88 9 -11 9 -14 62 -14 284
0 149 3 275 7 279 4 3 117 5 252 4 l246 -3 3 -274z"/>
</g>
</svg>
